<mxfile host="app.diagrams.net" modified="2022-01-29T10:17:31.497Z" agent="5.0 (Windows NT 10.0; Win64; x64) AppleWebKit/537.36 (KHTML, like Gecko) Chrome/97.0.4692.99 Safari/537.36" etag="eqjsSa87eXg7RfsHClYf" version="15.9.4" type="github">
  <diagram id="jQPR_bwrtm7TC7y7AMAF" name="第 1 页">
    <mxGraphModel dx="823" dy="1222" grid="1" gridSize="10" guides="1" tooltips="1" connect="1" arrows="1" fold="1" page="1" pageScale="1" pageWidth="827" pageHeight="1169" math="0" shadow="0">
      <root>
        <mxCell id="0" />
        <mxCell id="1" parent="0" />
        <mxCell id="iyJ31IsJtUmITWTH7De2-7" value="Mindmap" style="swimlane;startSize=20;horizontal=1;containerType=tree;sketch=1;" parent="1" vertex="1">
          <mxGeometry x="601" y="221" width="530" height="470" as="geometry" />
        </mxCell>
        <mxCell id="iyJ31IsJtUmITWTH7De2-8" value="" style="edgeStyle=orthogonalEdgeStyle;startArrow=none;endArrow=none;segment=10;curved=1;rounded=0;sketch=1;noEdgeStyle=1;orthogonal=1;" parent="iyJ31IsJtUmITWTH7De2-7" source="iyJ31IsJtUmITWTH7De2-12" target="iyJ31IsJtUmITWTH7De2-13" edge="1">
          <mxGeometry relative="1" as="geometry" />
        </mxCell>
        <mxCell id="iyJ31IsJtUmITWTH7De2-9" value="" style="edgeStyle=orthogonalEdgeStyle;startArrow=none;endArrow=none;segment=10;curved=1;rounded=0;sketch=1;noEdgeStyle=1;orthogonal=1;" parent="iyJ31IsJtUmITWTH7De2-7" source="iyJ31IsJtUmITWTH7De2-12" target="iyJ31IsJtUmITWTH7De2-14" edge="1">
          <mxGeometry relative="1" as="geometry" />
        </mxCell>
        <mxCell id="iyJ31IsJtUmITWTH7De2-10" value="" style="edgeStyle=orthogonalEdgeStyle;startArrow=none;endArrow=none;segment=10;curved=1;rounded=0;sketch=1;noEdgeStyle=1;orthogonal=1;" parent="iyJ31IsJtUmITWTH7De2-7" source="iyJ31IsJtUmITWTH7De2-12" target="iyJ31IsJtUmITWTH7De2-15" edge="1">
          <mxGeometry relative="1" as="geometry" />
        </mxCell>
        <mxCell id="iyJ31IsJtUmITWTH7De2-11" value="" style="edgeStyle=orthogonalEdgeStyle;startArrow=none;endArrow=none;segment=10;curved=1;rounded=0;sketch=1;noEdgeStyle=1;orthogonal=1;" parent="iyJ31IsJtUmITWTH7De2-7" source="iyJ31IsJtUmITWTH7De2-12" target="iyJ31IsJtUmITWTH7De2-16" edge="1">
          <mxGeometry relative="1" as="geometry" />
        </mxCell>
        <mxCell id="iyJ31IsJtUmITWTH7De2-12" value="统计学习方法分类" style="ellipse;whiteSpace=wrap;html=1;align=center;treeFolding=1;treeMoving=1;newEdgeStyle={&quot;edgeStyle&quot;:&quot;entityRelationEdgeStyle&quot;,&quot;startArrow&quot;:&quot;none&quot;,&quot;endArrow&quot;:&quot;none&quot;,&quot;segment&quot;:10,&quot;curved&quot;:1};sketch=1;" parent="iyJ31IsJtUmITWTH7De2-7" vertex="1">
          <mxGeometry x="209" y="215" width="130" height="40" as="geometry" />
        </mxCell>
        <mxCell id="iyJ31IsJtUmITWTH7De2-13" value="算法分类" style="whiteSpace=wrap;html=1;rounded=1;arcSize=50;align=center;verticalAlign=middle;strokeWidth=1;autosize=1;spacing=4;treeFolding=1;treeMoving=1;newEdgeStyle={&quot;edgeStyle&quot;:&quot;entityRelationEdgeStyle&quot;,&quot;startArrow&quot;:&quot;none&quot;,&quot;endArrow&quot;:&quot;none&quot;,&quot;segment&quot;:10,&quot;curved&quot;:1};sketch=1;" parent="iyJ31IsJtUmITWTH7De2-7" vertex="1">
          <mxGeometry x="229" y="341" width="90" height="30" as="geometry" />
        </mxCell>
        <mxCell id="iyJ31IsJtUmITWTH7De2-14" value="基本分类&lt;br&gt;" style="whiteSpace=wrap;html=1;rounded=1;arcSize=50;align=center;verticalAlign=middle;strokeWidth=1;autosize=1;spacing=4;treeFolding=1;treeMoving=1;newEdgeStyle={&quot;edgeStyle&quot;:&quot;entityRelationEdgeStyle&quot;,&quot;startArrow&quot;:&quot;none&quot;,&quot;endArrow&quot;:&quot;none&quot;,&quot;segment&quot;:10,&quot;curved&quot;:1};fontFamily=Helvetica;fontSize=12;fontColor=rgb(0, 0, 0);strokeColor=rgb(0, 0, 0);sketch=1;" parent="iyJ31IsJtUmITWTH7De2-7" vertex="1">
          <mxGeometry x="279" y="123" width="90" height="30" as="geometry" />
        </mxCell>
        <mxCell id="iyJ31IsJtUmITWTH7De2-15" value="模型分类" style="whiteSpace=wrap;html=1;rounded=1;arcSize=50;align=center;verticalAlign=middle;strokeWidth=1;autosize=1;spacing=4;treeFolding=1;treeMoving=1;newEdgeStyle={&quot;edgeStyle&quot;:&quot;entityRelationEdgeStyle&quot;,&quot;startArrow&quot;:&quot;none&quot;,&quot;endArrow&quot;:&quot;none&quot;,&quot;segment&quot;:10,&quot;curved&quot;:1};sketch=1;" parent="iyJ31IsJtUmITWTH7De2-7" vertex="1">
          <mxGeometry x="109" y="196" width="90" height="30" as="geometry" />
        </mxCell>
        <mxCell id="iyJ31IsJtUmITWTH7De2-16" value="技巧分类" style="whiteSpace=wrap;html=1;rounded=1;arcSize=50;align=center;verticalAlign=middle;strokeWidth=1;autosize=1;spacing=4;treeFolding=1;treeMoving=1;newEdgeStyle={&quot;edgeStyle&quot;:&quot;entityRelationEdgeStyle&quot;,&quot;startArrow&quot;:&quot;none&quot;,&quot;endArrow&quot;:&quot;none&quot;,&quot;segment&quot;:10,&quot;curved&quot;:1};fontFamily=Helvetica;fontSize=12;fontColor=rgb(0, 0, 0);strokeColor=rgb(0, 0, 0);sketch=1;" parent="iyJ31IsJtUmITWTH7De2-7" vertex="1">
          <mxGeometry x="329" y="293" width="90" height="30" as="geometry" />
        </mxCell>
        <mxCell id="iyJ31IsJtUmITWTH7De2-27" value="非监督学习" style="whiteSpace=wrap;html=1;shape=partialRectangle;top=0;left=0;bottom=1;right=0;points=[[0,1],[1,1]];fillColor=none;align=center;verticalAlign=bottom;routingCenterY=0.5;snapToPoint=1;recursiveResize=0;autosize=1;treeFolding=1;treeMoving=1;newEdgeStyle={&quot;edgeStyle&quot;:&quot;entityRelationEdgeStyle&quot;,&quot;startArrow&quot;:&quot;none&quot;,&quot;endArrow&quot;:&quot;none&quot;,&quot;segment&quot;:10,&quot;curved&quot;:1};sketch=1;" parent="iyJ31IsJtUmITWTH7De2-7" vertex="1">
          <mxGeometry x="359" y="104" width="90" height="20" as="geometry" />
        </mxCell>
        <mxCell id="iyJ31IsJtUmITWTH7De2-28" value="" style="edgeStyle=orthogonalEdgeStyle;startArrow=none;endArrow=none;segment=10;curved=1;rounded=0;sketch=1;noEdgeStyle=1;orthogonal=1;" parent="iyJ31IsJtUmITWTH7De2-7" source="iyJ31IsJtUmITWTH7De2-14" target="iyJ31IsJtUmITWTH7De2-27" edge="1">
          <mxGeometry relative="1" as="geometry">
            <mxPoint x="-581.926513342416" y="-1924.1740163125428" as="sourcePoint" />
          </mxGeometry>
        </mxCell>
        <mxCell id="iyJ31IsJtUmITWTH7De2-29" value="概率模型|非概率模型" style="whiteSpace=wrap;html=1;shape=partialRectangle;top=0;left=0;bottom=1;right=0;points=[[0,1],[1,1]];fillColor=none;align=center;verticalAlign=bottom;routingCenterY=0.5;snapToPoint=1;recursiveResize=0;autosize=1;treeFolding=1;treeMoving=1;newEdgeStyle={&quot;edgeStyle&quot;:&quot;entityRelationEdgeStyle&quot;,&quot;startArrow&quot;:&quot;none&quot;,&quot;endArrow&quot;:&quot;none&quot;,&quot;segment&quot;:10,&quot;curved&quot;:1};sketch=1;" parent="iyJ31IsJtUmITWTH7De2-7" vertex="1">
          <mxGeometry x="59" y="152" width="140" height="20" as="geometry" />
        </mxCell>
        <mxCell id="iyJ31IsJtUmITWTH7De2-30" value="" style="edgeStyle=orthogonalEdgeStyle;startArrow=none;endArrow=none;segment=10;curved=1;rounded=0;sketch=1;noEdgeStyle=1;orthogonal=1;" parent="iyJ31IsJtUmITWTH7De2-7" source="iyJ31IsJtUmITWTH7De2-15" target="iyJ31IsJtUmITWTH7De2-29" edge="1">
          <mxGeometry relative="1" as="geometry">
            <mxPoint x="-1323.926513342416" y="-1967.1740163125428" as="sourcePoint" />
          </mxGeometry>
        </mxCell>
        <mxCell id="iyJ31IsJtUmITWTH7De2-31" value="贝叶斯学习" style="whiteSpace=wrap;html=1;shape=partialRectangle;top=0;left=0;bottom=1;right=0;points=[[0,1],[1,1]];fillColor=none;align=center;verticalAlign=bottom;routingCenterY=0.5;snapToPoint=1;recursiveResize=0;autosize=1;treeFolding=1;treeMoving=1;newEdgeStyle={&quot;edgeStyle&quot;:&quot;entityRelationEdgeStyle&quot;,&quot;startArrow&quot;:&quot;none&quot;,&quot;endArrow&quot;:&quot;none&quot;,&quot;segment&quot;:10,&quot;curved&quot;:1};sketch=1;" parent="iyJ31IsJtUmITWTH7De2-7" vertex="1">
          <mxGeometry x="409" y="274" width="90" height="20" as="geometry" />
        </mxCell>
        <mxCell id="iyJ31IsJtUmITWTH7De2-32" value="" style="edgeStyle=orthogonalEdgeStyle;startArrow=none;endArrow=none;segment=10;curved=1;rounded=0;sketch=1;noEdgeStyle=1;orthogonal=1;" parent="iyJ31IsJtUmITWTH7De2-7" source="iyJ31IsJtUmITWTH7De2-16" target="iyJ31IsJtUmITWTH7De2-31" edge="1">
          <mxGeometry relative="1" as="geometry">
            <mxPoint x="-1323.926513342416" y="-1924.1740163125428" as="sourcePoint" />
          </mxGeometry>
        </mxCell>
        <mxCell id="iyJ31IsJtUmITWTH7De2-34" value="在线学习" style="whiteSpace=wrap;html=1;shape=partialRectangle;top=0;left=0;bottom=1;right=0;points=[[0,1],[1,1]];fillColor=none;align=center;verticalAlign=bottom;routingCenterY=0.5;snapToPoint=1;recursiveResize=0;autosize=1;treeFolding=1;treeMoving=1;newEdgeStyle={&quot;edgeStyle&quot;:&quot;entityRelationEdgeStyle&quot;,&quot;startArrow&quot;:&quot;none&quot;,&quot;endArrow&quot;:&quot;none&quot;,&quot;segment&quot;:10,&quot;curved&quot;:1};sketch=1;" parent="iyJ31IsJtUmITWTH7De2-7" vertex="1">
          <mxGeometry x="179" y="371" width="80" height="20" as="geometry" />
        </mxCell>
        <mxCell id="iyJ31IsJtUmITWTH7De2-35" value="" style="edgeStyle=orthogonalEdgeStyle;startArrow=none;endArrow=none;segment=10;curved=1;rounded=0;sketch=1;noEdgeStyle=1;orthogonal=1;" parent="iyJ31IsJtUmITWTH7De2-7" source="iyJ31IsJtUmITWTH7De2-13" target="iyJ31IsJtUmITWTH7De2-34" edge="1">
          <mxGeometry relative="1" as="geometry">
            <mxPoint x="-1032.926513342416" y="-1416.1740163125428" as="sourcePoint" />
          </mxGeometry>
        </mxCell>
        <mxCell id="iyJ31IsJtUmITWTH7De2-36" value="" style="edgeStyle=orthogonalEdgeStyle;startArrow=none;endArrow=none;segment=10;curved=1;rounded=0;sketch=1;noEdgeStyle=1;orthogonal=1;" parent="iyJ31IsJtUmITWTH7De2-7" source="iyJ31IsJtUmITWTH7De2-14" target="iyJ31IsJtUmITWTH7De2-37" edge="1">
          <mxGeometry relative="1" as="geometry">
            <mxPoint x="-756.6851340320711" y="-1695.1740163125428" as="sourcePoint" />
          </mxGeometry>
        </mxCell>
        <mxCell id="iyJ31IsJtUmITWTH7De2-37" value="监督学习" style="whiteSpace=wrap;html=1;shape=partialRectangle;top=0;left=0;bottom=1;right=0;points=[[0,1],[1,1]];fillColor=none;align=center;verticalAlign=bottom;routingCenterY=0.5;snapToPoint=1;recursiveResize=0;autosize=1;treeFolding=1;treeMoving=1;newEdgeStyle={&quot;edgeStyle&quot;:&quot;entityRelationEdgeStyle&quot;,&quot;startArrow&quot;:&quot;none&quot;,&quot;endArrow&quot;:&quot;none&quot;,&quot;segment&quot;:10,&quot;curved&quot;:1};sketch=1;" parent="iyJ31IsJtUmITWTH7De2-7" vertex="1">
          <mxGeometry x="239" y="80" width="80" height="20" as="geometry" />
        </mxCell>
        <mxCell id="iyJ31IsJtUmITWTH7De2-38" value="" style="edgeStyle=orthogonalEdgeStyle;startArrow=none;endArrow=none;segment=10;curved=1;rounded=0;sketch=1;noEdgeStyle=1;orthogonal=1;" parent="iyJ31IsJtUmITWTH7De2-7" source="iyJ31IsJtUmITWTH7De2-14" target="iyJ31IsJtUmITWTH7De2-39" edge="1">
          <mxGeometry relative="1" as="geometry">
            <mxPoint x="-755.977795393698" y="-1695.1740163125428" as="sourcePoint" />
          </mxGeometry>
        </mxCell>
        <mxCell id="iyJ31IsJtUmITWTH7De2-39" value="强化学习" style="whiteSpace=wrap;html=1;shape=partialRectangle;top=0;left=0;bottom=1;right=0;points=[[0,1],[1,1]];fillColor=none;align=center;verticalAlign=bottom;routingCenterY=0.5;snapToPoint=1;recursiveResize=0;autosize=1;treeFolding=1;treeMoving=1;newEdgeStyle={&quot;edgeStyle&quot;:&quot;entityRelationEdgeStyle&quot;,&quot;startArrow&quot;:&quot;none&quot;,&quot;endArrow&quot;:&quot;none&quot;,&quot;segment&quot;:10,&quot;curved&quot;:1};sketch=1;" parent="iyJ31IsJtUmITWTH7De2-7" vertex="1">
          <mxGeometry x="319" y="55" width="80" height="20" as="geometry" />
        </mxCell>
        <mxCell id="iyJ31IsJtUmITWTH7De2-40" value="" style="edgeStyle=orthogonalEdgeStyle;startArrow=none;endArrow=none;segment=10;curved=1;rounded=0;sketch=1;noEdgeStyle=1;orthogonal=1;" parent="iyJ31IsJtUmITWTH7De2-7" source="iyJ31IsJtUmITWTH7De2-15" target="iyJ31IsJtUmITWTH7De2-41" edge="1">
          <mxGeometry relative="1" as="geometry">
            <mxPoint x="-872.926513342416" y="-1708.1740163125428" as="sourcePoint" />
          </mxGeometry>
        </mxCell>
        <mxCell id="iyJ31IsJtUmITWTH7De2-41" value="线性模型|非线性模型" style="whiteSpace=wrap;html=1;shape=partialRectangle;top=0;left=0;bottom=1;right=0;points=[[0,1],[1,1]];fillColor=none;align=center;verticalAlign=bottom;routingCenterY=0.5;snapToPoint=1;recursiveResize=0;autosize=1;treeFolding=1;treeMoving=1;newEdgeStyle={&quot;edgeStyle&quot;:&quot;entityRelationEdgeStyle&quot;,&quot;startArrow&quot;:&quot;none&quot;,&quot;endArrow&quot;:&quot;none&quot;,&quot;segment&quot;:10,&quot;curved&quot;:1};sketch=1;" parent="iyJ31IsJtUmITWTH7De2-7" vertex="1">
          <mxGeometry x="9" y="177" width="140" height="20" as="geometry" />
        </mxCell>
        <mxCell id="iyJ31IsJtUmITWTH7De2-42" value="" style="edgeStyle=orthogonalEdgeStyle;startArrow=none;endArrow=none;segment=10;curved=1;rounded=0;sketch=1;noEdgeStyle=1;orthogonal=1;" parent="iyJ31IsJtUmITWTH7De2-7" source="iyJ31IsJtUmITWTH7De2-15" target="iyJ31IsJtUmITWTH7De2-43" edge="1">
          <mxGeometry relative="1" as="geometry">
            <mxPoint x="-866.176513342416" y="-1708.1740163125428" as="sourcePoint" />
          </mxGeometry>
        </mxCell>
        <mxCell id="iyJ31IsJtUmITWTH7De2-43" value="参数化模型|非参数化模型" style="whiteSpace=wrap;html=1;shape=partialRectangle;top=0;left=0;bottom=1;right=0;points=[[0,1],[1,1]];fillColor=none;align=center;verticalAlign=bottom;routingCenterY=0.5;snapToPoint=1;recursiveResize=0;autosize=1;treeFolding=1;treeMoving=1;newEdgeStyle={&quot;edgeStyle&quot;:&quot;entityRelationEdgeStyle&quot;,&quot;startArrow&quot;:&quot;none&quot;,&quot;endArrow&quot;:&quot;none&quot;,&quot;segment&quot;:10,&quot;curved&quot;:1};sketch=1;" parent="iyJ31IsJtUmITWTH7De2-7" vertex="1">
          <mxGeometry x="9" y="249" width="170" height="20" as="geometry" />
        </mxCell>
        <mxCell id="iyJ31IsJtUmITWTH7De2-44" value="" style="edgeStyle=orthogonalEdgeStyle;startArrow=none;endArrow=none;segment=10;curved=1;rounded=0;sketch=1;noEdgeStyle=1;orthogonal=1;" parent="iyJ31IsJtUmITWTH7De2-7" source="iyJ31IsJtUmITWTH7De2-13" target="iyJ31IsJtUmITWTH7De2-45" edge="1">
          <mxGeometry relative="1" as="geometry">
            <mxPoint x="-852.926513342416" y="-1868.1740163125428" as="sourcePoint" />
          </mxGeometry>
        </mxCell>
        <mxCell id="iyJ31IsJtUmITWTH7De2-45" value="批量学习" style="whiteSpace=wrap;html=1;shape=partialRectangle;top=0;left=0;bottom=1;right=0;points=[[0,1],[1,1]];fillColor=none;align=center;verticalAlign=bottom;routingCenterY=0.5;snapToPoint=1;recursiveResize=0;autosize=1;treeFolding=1;treeMoving=1;newEdgeStyle={&quot;edgeStyle&quot;:&quot;entityRelationEdgeStyle&quot;,&quot;startArrow&quot;:&quot;none&quot;,&quot;endArrow&quot;:&quot;none&quot;,&quot;segment&quot;:10,&quot;curved&quot;:1};sketch=1;" parent="iyJ31IsJtUmITWTH7De2-7" vertex="1">
          <mxGeometry x="259" y="395" width="80" height="20" as="geometry" />
        </mxCell>
        <mxCell id="iyJ31IsJtUmITWTH7De2-46" value="" style="edgeStyle=orthogonalEdgeStyle;startArrow=none;endArrow=none;segment=10;curved=1;rounded=0;sketch=1;noEdgeStyle=1;orthogonal=1;" parent="iyJ31IsJtUmITWTH7De2-7" source="iyJ31IsJtUmITWTH7De2-16" target="iyJ31IsJtUmITWTH7De2-47" edge="1">
          <mxGeometry relative="1" as="geometry">
            <mxPoint x="-668.3382780482984" y="-1795.1740163125428" as="sourcePoint" />
          </mxGeometry>
        </mxCell>
        <mxCell id="iyJ31IsJtUmITWTH7De2-47" value="核方法" style="whiteSpace=wrap;html=1;shape=partialRectangle;top=0;left=0;bottom=1;right=0;points=[[0,1],[1,1]];fillColor=none;align=center;verticalAlign=bottom;routingCenterY=0.5;snapToPoint=1;recursiveResize=0;autosize=1;treeFolding=1;treeMoving=1;newEdgeStyle={&quot;edgeStyle&quot;:&quot;entityRelationEdgeStyle&quot;,&quot;startArrow&quot;:&quot;none&quot;,&quot;endArrow&quot;:&quot;none&quot;,&quot;segment&quot;:10,&quot;curved&quot;:1};sketch=1;" parent="iyJ31IsJtUmITWTH7De2-7" vertex="1">
          <mxGeometry x="389" y="322" width="70" height="20" as="geometry" />
        </mxCell>
      </root>
    </mxGraphModel>
  </diagram>
</mxfile>
